# Blender 4.2.1 LTS
# www.blender.org
mtllib test0.mtl
o Cube
v 1.000000 1.000000 -1.000000
v 1.000000 -1.000000 -1.000000
v 1.000000 1.000000 1.000000
v 1.000000 -1.000000 1.000000
v -1.000000 1.000000 -1.000000
v -1.000000 -1.000000 -1.000000
v -1.000000 1.000000 1.000000
v -1.000000 -1.000000 1.000000
v -1.000000 -1.000000 -0.498868
v 1.000000 1.000000 -0.498868
v -1.000000 1.000000 -0.498868
v 1.000000 -1.000000 -0.498868
v -1.000000 -1.000000 0.569924
v 1.000000 1.000000 0.569924
v -1.000000 1.000000 0.569924
v 1.000000 -1.000000 0.569924
v 0.478957 -1.000000 -1.000000
v 0.478957 1.000000 1.000000
v 0.478957 -1.000000 1.000000
v 0.478957 1.000000 -1.000000
v 0.478957 -1.000000 -0.498868
v 0.478957 1.000000 -0.498868
v 0.478957 -1.000000 0.569924
v 0.478957 1.000000 0.569924
v 0.478957 4.342493 -0.498868
v 1.000000 4.342493 -0.498868
v 1.000000 4.342493 0.569924
v 0.478957 4.342493 0.569924
v -1.000000 -1.000000 3.934570
v -1.000000 1.000000 3.934570
v 0.478957 1.000000 3.934570
v 0.478957 -1.000000 3.934570
v 1.000000 -3.589801 -0.498868
v 1.000000 -3.589801 -1.000000
v 0.478957 -3.589801 -1.000000
v 0.478957 -3.589801 -0.498868
v 4.198624 1.000000 -1.000000
v 4.198624 -1.000000 -1.000000
v 4.198624 -1.000000 -0.498868
v 4.198624 1.000000 -0.498868
v 3.261545 1.000000 -1.000000
v 3.261545 -1.000000 -1.000000
v 3.261545 1.000000 -0.498868
v 3.261545 -1.000000 -0.498868
v 4.198624 1.000000 -4.506908
v 4.198624 -1.000000 -4.506908
v 3.261545 1.000000 -4.506908
v 3.261545 -1.000000 -4.506908
vn -0.0000 1.0000 -0.0000
vn -0.0000 -1.0000 -0.0000
vn -1.0000 -0.0000 -0.0000
vn 1.0000 -0.0000 -0.0000
vn -0.0000 -0.0000 -1.0000
vn -0.0000 -0.0000 1.0000
vt 0.163675 0.269589
vt 0.077102 0.196954
vt 0.098224 0.171779
vt 0.184797 0.244414
vt 0.878969 0.574939
vt 0.765961 0.574939
vt 0.765961 0.350708
vt 0.878969 0.350708
vt 0.726148 0.388999
vt 0.573328 0.388999
vt 0.573328 0.350708
vt 0.726148 0.350708
vt 0.765961 0.607801
vt 0.726148 0.607801
vt 0.726148 0.574939
vt 0.960635 0.758929
vt 0.960635 0.606108
vt 0.993498 0.606108
vt 0.993498 0.758929
vt 0.441928 0.152820
vt 0.441928 0.000000
vt 0.481741 0.000000
vt 0.481741 0.152820
vt 0.328921 0.388999
vt 0.400523 0.388999
vt 0.400523 0.656963
vt 0.328921 0.656963
vt 0.071602 0.749450
vt 0.111415 0.749450
vt 0.111415 0.947337
vt 0.071602 0.947337
vt 0.726148 0.470666
vt 0.573328 0.470666
vt 0.086573 0.361487
vt -0.000000 0.288852
vt 0.024612 0.259518
vt 0.111185 0.332152
vt 0.726148 0.503528
vt 0.573328 0.503528
vt 0.878969 0.758929
vt 0.878969 0.606108
vt 0.765961 0.689468
vt 0.726148 0.689468
vt 0.878969 0.350708
vt 0.960635 0.350708
vt 0.878969 0.689468
vt 0.878969 0.607801
vt 0.117073 0.387077
vt 0.141685 0.357742
vt 0.878969 0.727759
vt 0.765961 0.727759
vt 0.328921 0.152820
vt 0.328921 0.000000
vt 0.187999 0.902270
vt 0.187999 0.749450
vt 0.227812 0.749450
vt 0.227812 0.902270
vt 0.194175 0.295179
vt 0.215297 0.270004
vt 0.267625 0.831116
vt 0.227812 0.831116
vt 0.227812 0.749450
vt 0.267625 0.749450
vt 0.878969 0.983160
vt 0.839156 0.983160
vt 0.839156 0.727759
vt 0.878969 0.727759
vt 1.000000 0.255401
vt 0.960187 0.255401
vt 0.960187 0.000000
vt 1.000000 0.000000
vt 0.563408 0.912364
vt 0.481741 0.912364
vt 0.481741 0.656963
vt 0.563408 0.656963
vt 0.726148 0.880580
vt 0.726148 0.727759
vt 0.839156 0.727759
vt 0.839156 0.880580
vt 0.242348 0.000000
vt 0.328920 0.072635
vt 0.726148 0.951990
vt 0.573328 0.951990
vt 0.573328 0.727759
vt 0.726148 0.727759
vt 0.573328 0.727759
vt 0.692838 0.306255
vt 0.692838 0.346068
vt 0.654546 0.346068
vt 0.654546 0.306255
vt 0.481741 0.350708
vt 0.441928 0.350708
vt 0.149707 0.749450
vt 0.149707 0.947337
vt 0.187999 0.749450
vt 0.187999 0.947337
vt 0.807367 0.038292
vt 0.654546 0.038292
vt 0.654546 -0.000000
vt 0.807367 0.000000
vt 0.249456 0.498146
vt 0.274067 0.468812
vt 0.328920 0.514834
vt 0.304309 0.544168
vt 0.400523 0.350708
vt 0.328921 0.350708
vt 0.807367 0.172805
vt 0.960187 0.172805
vt 0.960187 0.244408
vt 0.807367 0.244408
vt 0.807367 -0.000000
vt 0.960187 0.000000
vt 0.573328 0.388999
vt 0.654546 0.000000
vt 0.654546 0.152820
vt 0.000000 0.902270
vt 0.000000 0.749450
vt 0.071602 0.902270
vt 0.132077 0.749450
vt 0.077224 0.703428
vt 0.481741 0.924927
vt 0.328921 0.924927
vt 0.328921 0.656963
vt 0.481741 0.656963
vt 0.807367 0.306255
vt 0.654546 0.306255
s 0
usemtl Material
f 24/1/1 15/2/1 7/3/1 18/4/1
f 8/5/2 19/6/2 32/7/2 29/8/2
f 9/9/3 11/10/3 5/11/3 6/12/3
f 23/13/2 16/14/2 4/15/2 19/6/2
f 16/16/4 14/17/4 3/18/4 4/19/4
f 17/20/5 20/21/5 1/22/5 2/23/5
f 38/24/2 42/25/2 48/26/2 46/27/2
f 12/28/6 21/29/6 36/30/6 33/31/6
f 13/32/3 15/33/3 11/10/3 9/9/3
f 20/34/1 5/35/1 11/36/1 22/37/1
f 8/38/3 7/39/3 15/33/3 13/32/3
f 12/40/4 10/41/4 14/17/4 16/16/4
f 21/42/2 12/43/2 16/14/2 23/13/2
f 22/37/1 11/36/1 15/2/1 24/1/1
f 14/17/4 10/41/4 26/44/4 27/45/4
f 9/46/2 21/42/2 23/13/2 13/47/2
f 1/48/1 20/34/1 22/37/1 10/49/1
f 6/50/2 17/51/2 21/42/2 9/46/2
f 6/52/5 5/53/5 20/21/5 17/20/5
f 13/47/2 23/13/2 19/6/2 8/5/2
f 4/54/6 3/55/6 18/56/6 19/57/6
f 14/58/1 24/1/1 18/4/1 3/59/1
f 26/60/1 25/61/1 28/62/1 27/63/1
f 10/64/5 22/65/5 25/66/5 26/67/5
f 24/68/6 14/69/6 27/70/6 28/71/6
f 22/72/3 24/73/3 28/74/3 25/75/3
f 32/76/6 31/77/6 30/78/6 29/79/6
f 18/4/1 7/3/1 30/80/1 31/81/1
f 19/82/4 18/83/4 31/84/4 32/85/4
f 7/39/3 8/38/3 29/77/3 30/86/3
f 35/87/2 34/88/2 33/89/2 36/90/2
f 17/20/5 2/23/5 34/91/5 35/92/5
f 21/29/3 17/93/3 35/94/3 36/30/3
f 2/93/4 12/95/4 33/96/4 34/94/4
f 38/97/4 37/98/4 40/99/4 39/100/4
f 41/101/1 43/102/1 40/103/1 37/104/1
f 44/105/2 42/25/2 38/24/2 39/106/2
f 43/107/6 44/108/6 39/109/6 40/110/6
f 10/111/6 12/112/6 44/108/6 43/107/6
f 12/11/2 2/113/2 42/25/2 44/105/2
f 1/48/1 10/49/1 43/102/1 41/101/1
f 2/23/5 1/22/5 41/114/5 42/115/5
f 48/116/5 47/117/5 45/28/5 46/118/5
f 41/101/1 37/104/1 45/119/1 47/120/1
f 42/121/3 41/122/3 47/123/3 48/124/3
f 37/98/4 38/97/4 46/125/4 45/126/4
